# xmcd
#
# Track frame offsets:
# 150
# 14655
# 32254
# 54437
# 73225
# 91419
# 110362
# 127963
# 147425
# 165894
# 183859
# 202287
# 222057
# 242889
#
# Disc length: 3559 seconds
#
#
# Revision: 3
# Processed by: cddbd v1.5.2PL0 Copyright (c) Steve Scherf et al.
# Submitted via: FreeRIP 2.951 
#
DISCID=c30de50e
DTITLE=Boleros Em Inglês - Sucessos Internacionais
DYEAR=2001
DGENRE=Ballad
TTITLE0=Faixa 01 - Baby Can I Hold You - Tracy Chapman
TTITLE1=Faixa 02 - Love Hurts - Nazareth
TTITLE2=Faixa 03 - Nikita - Elton John
TTITLE3=Faixa 04 - I Should Have Known Better - Jim Diamond
TTITLE4=Faixa 05 - Say You Say Me - Lionel Richie
TTITLE5=Faixa 06 - Take My Breath Away - Berlim
TTITLE6=Faixa 07 - Don't Dream It's Over - Crowded House
TTITLE7=Faixa 08 - The Glory Of Love - Peter Cetera
TTITLE8=Faixa 09 - Heaven - Bryan Adams
TTITLE9=Faixa 10 - How Deep Is Your Love - Bee Gees
TTITLE10=Faixa 11 - The Lady In Red - Chris De Burgh
TTITLE11=Faixa 12 - I Just Called To Say I Love You - Steve Wonder
TTITLE12=Faixa 13 - Spending My Time - Roxette
TTITLE13=Faixa 14 - Everytime You Go Away - Paul Young
EXTD=pedro.rp@oi.com.br\nNov. 2006
EXTT0=
EXTT1=
EXTT2=
EXTT3=
EXTT4=
EXTT5=
EXTT6=
EXTT7=
EXTT8=
EXTT9=
EXTT10=
EXTT11=
EXTT12=
EXTT13=
PLAYORDER=
